<svg width="879" height="587" viewBox="0 0 879 587" fill="none" xmlns="http://www.w3.org/2000/svg">
<g clip-path="url(#clip0_83_45)">
<path d="M134.032 412.703C114.521 427.248 108.991 452.838 108.991 452.838C108.991 452.838 135.095 454.847 154.606 440.303C174.117 425.759 179.646 400.168 179.646 400.168C179.646 400.168 153.542 398.159 134.032 412.703Z" fill="#666762"/>
<path d="M142.159 419.532C132.782 441.988 109.297 453.56 109.297 453.56C109.297 453.56 101.016 428.724 110.393 406.267C119.77 383.811 143.255 372.239 143.255 372.239C143.255 372.239 151.536 397.076 142.159 419.532Z" fill="#666762"/>
<path d="M703.502 354.614C701.429 340.65 700.882 326.501 701.869 312.419L703.502 289.112C694.502 307.02 696.536 330.59 703.502 354.614V354.614Z" fill="#CACACA"/>
<path d="M710.52 358.513C709.522 350.18 709.26 341.776 709.735 333.397L710.52 319.523C706.19 330.183 707.169 344.213 710.52 358.513Z" fill="#CACACA"/>
<path d="M741.716 375.67V383.468C741.713 384.088 741.465 384.681 741.027 385.119C740.589 385.557 739.996 385.804 739.376 385.808H735.477C735.375 385.807 735.273 385.827 735.179 385.866C735.084 385.905 734.998 385.963 734.925 386.035C734.853 386.108 734.795 386.194 734.756 386.289C734.717 386.383 734.697 386.485 734.698 386.587V450.53C734.694 451.15 734.447 451.743 734.009 452.181C733.571 452.619 732.978 452.866 732.358 452.87H684.791C684.171 452.869 683.576 452.623 683.137 452.184C682.699 451.745 682.452 451.151 682.452 450.53V386.587C682.451 386.381 682.369 386.183 682.223 386.037C682.076 385.891 681.878 385.808 681.672 385.808H676.993C676.373 385.807 675.778 385.56 675.34 385.122C674.901 384.683 674.654 384.088 674.654 383.468V375.67C674.653 375.363 674.714 375.059 674.831 374.775C674.948 374.491 675.121 374.232 675.338 374.015C675.555 373.798 675.813 373.626 676.097 373.508C676.381 373.391 676.686 373.33 676.993 373.331H739.376C739.996 373.333 740.59 373.58 741.029 374.018C741.467 374.456 741.714 375.05 741.716 375.67V375.67Z" fill="#E0BBD6"/>
<path d="M734.768 387.445H682.522V389.784H734.768V387.445Z" fill="#1F3B57"/>
<path d="M734.698 421.869C717.215 429.104 699.542 429.183 681.672 421.869V405.388C698.875 399.61 717.495 399.61 734.698 405.388V421.869Z" fill="#1F3B57"/>
<path d="M441.853 169.877C480.88 169.877 512.519 138.238 512.519 99.2107C512.519 60.183 480.88 28.5448 441.853 28.5448C402.825 28.5448 371.187 60.183 371.187 99.2107C371.187 138.238 402.825 169.877 441.853 169.877Z" fill="#FEB8B8"/>
<path d="M507.855 38.246C497.29 21.0899 480.752 8.44813 461.425 2.75434L452.75 9.08513V0.864782C448.108 0.15437 443.41 -0.119301 438.718 0.0473682L431.233 6.81957V0.610006C420.151 1.98709 409.475 5.64536 399.878 11.3541C390.28 17.0629 381.969 24.6983 375.47 33.7789C359.216 57.2111 356.472 89.8105 372.459 113.431C376.847 99.9436 382.174 87.2889 386.563 73.803C390.013 74.2732 393.508 74.2902 396.962 73.8535L402.301 61.3949L403.793 73.3262C420.343 71.8849 444.889 68.7188 460.578 65.8184L459.052 56.6648L468.18 64.2709C472.986 63.1646 475.84 62.1606 475.605 61.3936C487.273 80.2048 501.553 92.2192 513.22 111.03C517.652 84.5056 522.752 62.4507 507.855 38.246Z" fill="#2F2E41"/>
<path d="M593.835 280.93C591.405 266.311 588.898 251.411 582.104 238.241C577.639 229.615 570.55 221.395 560.994 219.689C559.112 219.521 557.262 219.093 555.498 218.417C552.698 217.068 515.073 195.589 509.092 191.848C503.958 188.637 495.852 182.69 491.765 182.69C487.654 182.6 471.888 186.269 410.352 181.459C410.352 181.459 393.447 188.122 380.366 196.202C380.168 196.071 316.497 230.262 314.105 230.172C309.575 229.982 305.364 232.882 302.767 236.535C300.171 240.187 298.953 244.709 297.678 249.08C311.585 280.05 324.309 311.06 338.217 342.03C338.868 343.196 339.214 344.509 339.223 345.844C338.943 347.231 338.351 348.535 337.492 349.659C330.672 360.615 330.889 374.395 331.634 387.272C332.38 400.149 333.302 413.75 327.547 425.292C325.982 428.461 323.946 431.361 322.457 434.53C318.971 441.707 317.711 464.661 319.747 472.372L574.868 479.68C569.383 464.602 593.835 280.93 593.835 280.93Z" fill="#09BFF6"/>
<path d="M275.625 343.403C275.116 347.085 275.065 350.817 275.473 354.512L279.129 407.024C279.473 411.974 279.81 416.911 280.275 421.848C281.152 431.429 282.463 440.934 284.09 450.426C284.126 451.773 284.696 453.051 285.674 453.979C286.652 454.907 287.958 455.409 289.306 455.375C305.402 458.781 322.032 458.645 338.459 457.717C363.526 456.318 427.657 453.671 431.575 448.581C435.493 443.491 433.21 435.259 428.101 431.143C422.992 427.028 338.362 416.994 338.362 416.994C339.189 410.441 341.684 404.27 344.05 398.048C348.301 387.013 352.271 375.616 352.347 363.795C352.423 351.974 347.97 339.545 338.286 332.773C330.321 327.213 320.065 326.182 310.358 326.411C303.296 326.614 291.093 324.922 284.643 327.683C279.538 329.931 276.579 338.405 275.625 343.403Z" fill="#FBBEBE"/>
<path d="M296.942 250.023C295.703 251.321 294.742 252.858 294.118 254.541C283.833 277.72 277.758 302.546 276.177 327.856C276.205 329.09 275.921 330.312 275.35 331.406C274.788 332.135 274.162 332.812 273.48 333.429C272.885 334.134 272.435 334.95 272.155 335.829C271.876 336.708 271.772 337.633 271.85 338.552C271.928 339.472 272.186 340.366 272.61 341.186C273.034 342.005 273.615 342.733 274.32 343.328C274.435 343.425 274.554 343.519 274.676 343.609C276.775 339.658 281.801 338.367 286.268 338.023C307.657 336.331 328.55 346.282 350.002 345.531C348.489 340.301 346.312 335.275 345.078 329.983C339.619 306.481 353.234 280.894 344.887 258.257C343.219 253.727 340.433 249.274 336.044 247.289C334.226 246.556 332.324 246.052 330.382 245.79C324.961 244.811 314.17 240.624 308.929 242.304C306.995 242.928 306.232 244.747 304.628 245.846C302.192 247.402 298.961 247.974 296.942 250.023Z" fill="#09BFF6"/>
<path d="M593.988 327.683C587.537 324.922 575.335 326.614 568.272 326.411C558.565 326.182 548.31 327.213 540.344 332.773C530.661 339.545 526.207 351.974 526.283 363.795C526.36 375.616 530.33 387.013 534.58 398.048C536.946 404.27 539.441 410.441 540.268 416.994C540.268 416.994 455.638 427.028 450.529 431.143C445.42 435.259 443.137 443.491 447.055 448.581C450.973 453.671 573.228 458.781 589.324 455.375C590.672 455.409 591.978 454.907 592.956 453.979C593.934 453.051 594.504 451.773 594.541 450.426C596.167 440.934 597.478 431.429 598.355 421.848C598.82 416.911 599.158 411.974 599.501 407.024L603.157 354.512C603.565 350.817 603.514 347.086 603.005 343.403C602.051 338.405 599.092 329.931 593.988 327.683Z" fill="#FBBEBE"/>
<path d="M574.002 245.846C572.399 244.747 571.636 242.928 569.701 242.304C564.46 240.624 553.669 244.811 548.248 245.79C546.306 246.052 544.404 246.556 542.587 247.289C538.197 249.274 535.411 253.727 533.744 258.257C525.397 280.894 539.012 306.481 533.553 329.983C532.319 335.275 530.142 340.301 528.628 345.531C550.081 346.282 570.974 336.331 592.362 338.023C596.829 338.367 601.855 339.658 603.954 343.609C604.076 343.519 604.195 343.425 604.311 343.328C605.016 342.733 605.597 342.005 606.021 341.186C606.444 340.366 606.703 339.472 606.781 338.552C606.859 337.633 606.755 336.708 606.475 335.829C606.195 334.95 605.745 334.135 605.151 333.429C604.468 332.812 603.842 332.135 603.28 331.406C602.71 330.312 602.425 329.09 602.453 327.856C600.873 302.546 594.798 277.72 584.513 254.541C583.889 252.858 582.928 251.321 581.688 250.023C579.669 247.974 576.438 247.402 574.002 245.846Z" fill="#09BFF6"/>
<path d="M420.924 457.883C431.457 457.883 439.996 449.344 439.996 438.81C439.996 428.277 431.457 419.738 420.924 419.738C410.39 419.738 401.851 428.277 401.851 438.81C401.851 449.344 410.39 457.883 420.924 457.883Z" fill="#FBBEBE"/>
<path d="M463.156 457.883C473.69 457.883 482.229 449.344 482.229 438.81C482.229 428.277 473.69 419.738 463.156 419.738C452.623 419.738 444.083 428.277 444.083 438.81C444.083 449.344 452.623 457.883 463.156 457.883Z" fill="#FBBEBE"/>
<path d="M580.887 481.788H318.857C315.797 481.785 312.865 480.568 310.701 478.405C308.538 476.242 307.321 473.309 307.317 470.25V311.283C307.321 308.224 308.538 305.291 310.701 303.128C312.865 300.965 315.797 299.748 318.857 299.744H580.887C583.947 299.748 586.88 300.965 589.043 303.128C591.206 305.291 592.423 308.224 592.427 311.283V470.25C592.423 473.309 591.206 476.242 589.043 478.405C586.88 480.568 583.947 481.785 580.887 481.788Z" fill="#3F3D56"/>
<path d="M449.236 398.401C453.453 398.401 456.871 394.983 456.871 390.766C456.871 386.55 453.453 383.132 449.236 383.132C445.02 383.132 441.602 386.55 441.602 390.766C441.602 394.983 445.02 398.401 449.236 398.401Z" fill="white"/>
<path d="M878.63 449.724H0V476.724H51.97V483H826.68V476.724H878.63V449.724Z" fill="#666762"/>
<path d="M376.871 125.549C365.516 125.549 356.311 115.597 356.311 103.32V92.205C356.311 79.928 365.516 69.9756 376.871 69.9756V125.549H376.871Z" fill="#09BFF6"/>
<path d="M508.094 69.9756C519.449 69.9756 528.654 79.928 528.654 92.205V103.32C528.654 115.597 519.449 125.549 508.094 125.549V69.9756Z" fill="#09BFF6"/>
<path d="M518.868 93.9516H515.606C515.606 49.2216 481.949 12.8309 440.58 12.8309C399.21 12.8309 365.554 49.2216 365.554 93.9516H362.292C362.292 47.2767 397.412 9.30399 440.58 9.30399C483.748 9.30401 518.868 47.2768 518.868 93.9516Z" fill="#09BFF6"/>
</g>
<path d="M265.19 536.04C265.23 534.4 265.06 532.85 264.68 531.39C264.3 529.91 263.6 528.71 262.58 527.79C261.58 526.87 260.17 526.41 258.35 526.41C255.69 526.41 253.78 527.63 252.62 530.07C251.46 532.51 250.88 536.06 250.88 540.72C250.88 545.08 251.62 548.37 253.1 550.59C254.58 552.79 256.66 553.89 259.34 553.89C261.38 553.89 263.24 553.46 264.92 552.6C266.62 551.72 268.19 550.74 269.63 549.66C270.53 550.26 271.4 551.13 272.24 552.27C273.1 553.39 273.64 554.49 273.86 555.57C272.7 556.69 271.28 557.73 269.6 558.69C267.92 559.65 266.06 560.42 264.02 561C261.98 561.58 259.87 561.87 257.69 561.87C254.57 561.87 251.95 561.26 249.83 560.04C247.73 558.82 246.05 557.19 244.79 555.15C243.53 553.11 242.63 550.84 242.09 548.34C241.55 545.82 241.28 543.26 241.28 540.66C241.28 535.64 242.07 531.54 243.65 528.36C245.23 525.18 247.33 522.84 249.95 521.34C252.59 519.84 255.49 519.09 258.65 519.09C261.73 519.09 264.41 519.65 266.69 520.77C268.99 521.87 270.77 523.36 272.03 525.24C273.29 527.1 273.92 529.18 273.92 531.48C273.92 533.24 273.46 534.53 272.54 535.35C271.64 536.15 270.36 536.55 268.7 536.55C268.04 536.55 267.43 536.5 266.87 536.4C266.33 536.3 265.77 536.18 265.19 536.04ZM288.194 555C287.874 555 287.534 555 287.174 555C286.834 554.98 286.504 554.96 286.184 554.94L284.204 561C283.644 561.14 283.034 561.24 282.374 561.3C281.734 561.36 281.064 561.39 280.364 561.39C279.584 561.39 278.804 561.33 278.024 561.21C277.264 561.11 276.644 560.95 276.164 560.73L275.834 560.25L287.564 527.97C288.524 527.83 289.464 527.74 290.384 527.7C291.324 527.66 292.184 527.64 292.964 527.64C293.664 527.64 294.424 527.66 295.244 527.7C296.084 527.74 297.014 527.83 298.034 527.97L309.434 560.58C308.754 560.88 307.904 561.11 306.884 561.27C305.864 561.43 305.034 561.51 304.394 561.51C303.334 561.51 302.314 561.31 301.334 560.91C300.374 560.49 299.644 559.43 299.144 557.73L298.274 554.94C297.934 554.96 297.584 554.98 297.224 555C296.884 555 296.554 555 296.234 555H288.194ZM289.364 545.19L288.464 547.92C288.784 547.9 289.104 547.89 289.424 547.89C289.764 547.87 290.094 547.86 290.414 547.86H294.314C294.614 547.86 294.904 547.87 295.184 547.89C295.464 547.89 295.744 547.89 296.024 547.89L295.214 545.37C294.754 543.83 294.284 542.1 293.804 540.18C293.344 538.26 292.914 536.52 292.514 534.96H292.184C291.784 536.46 291.324 538.17 290.804 540.09C290.304 541.99 289.824 543.69 289.364 545.19ZM340.801 537.99C340.801 539.49 340.451 540.85 339.751 542.07C339.071 543.27 338.201 544.26 337.141 545.04C336.101 545.8 335.041 546.3 333.961 546.54C335.021 546.92 335.901 547.47 336.601 548.19C337.321 548.91 337.931 549.85 338.431 551.01L340.081 554.79C340.441 555.59 340.851 556.34 341.311 557.04C341.771 557.72 342.271 558.3 342.811 558.78C342.251 559.48 341.411 560.12 340.291 560.7C339.191 561.26 337.991 561.54 336.691 561.54C335.391 561.54 334.351 561.23 333.571 560.61C332.791 559.97 332.091 558.95 331.471 557.55L328.801 551.43C328.361 550.43 327.821 549.8 327.181 549.54C326.561 549.28 325.731 549.15 324.691 549.15H323.161V561C322.401 561.14 321.611 561.23 320.791 561.27C319.991 561.31 319.301 561.33 318.721 561.33C318.181 561.33 317.471 561.31 316.591 561.27C315.711 561.23 314.911 561.14 314.191 561V528.27L314.551 527.91C316.911 527.85 319.141 527.8 321.241 527.76C323.341 527.72 325.431 527.7 327.511 527.7C329.931 527.7 332.141 528.02 334.141 528.66C336.161 529.3 337.771 530.37 338.971 531.87C340.191 533.37 340.801 535.41 340.801 537.99ZM323.161 534.21V542.34C323.901 542.32 324.591 542.31 325.231 542.31C325.891 542.29 326.381 542.28 326.701 542.28C328.601 542.28 329.881 541.87 330.541 541.05C331.221 540.21 331.561 539.25 331.561 538.17C331.561 537.13 331.221 536.22 330.541 535.44C329.881 534.66 328.731 534.27 327.091 534.27C326.371 534.27 325.721 534.26 325.141 534.24C324.561 534.22 323.901 534.21 323.161 534.21ZM374.786 537.99C374.786 539.49 374.436 540.85 373.736 542.07C373.056 543.27 372.186 544.26 371.126 545.04C370.086 545.8 369.026 546.3 367.946 546.54C369.006 546.92 369.886 547.47 370.586 548.19C371.306 548.91 371.916 549.85 372.416 551.01L374.066 554.79C374.426 555.59 374.836 556.34 375.296 557.04C375.756 557.72 376.256 558.3 376.796 558.78C376.236 559.48 375.396 560.12 374.276 560.7C373.176 561.26 371.976 561.54 370.676 561.54C369.376 561.54 368.336 561.23 367.556 560.61C366.776 559.97 366.076 558.95 365.456 557.55L362.786 551.43C362.346 550.43 361.806 549.8 361.166 549.54C360.546 549.28 359.716 549.15 358.676 549.15H357.146V561C356.386 561.14 355.596 561.23 354.776 561.27C353.976 561.31 353.286 561.33 352.706 561.33C352.166 561.33 351.456 561.31 350.576 561.27C349.696 561.23 348.896 561.14 348.176 561V528.27L348.536 527.91C350.896 527.85 353.126 527.8 355.226 527.76C357.326 527.72 359.416 527.7 361.496 527.7C363.916 527.7 366.126 528.02 368.126 528.66C370.146 529.3 371.756 530.37 372.956 531.87C374.176 533.37 374.786 535.41 374.786 537.99ZM357.146 534.21V542.34C357.886 542.32 358.576 542.31 359.216 542.31C359.876 542.29 360.366 542.28 360.686 542.28C362.586 542.28 363.866 541.87 364.526 541.05C365.206 540.21 365.546 539.25 365.546 538.17C365.546 537.13 365.206 536.22 364.526 535.44C363.866 534.66 362.716 534.27 361.076 534.27C360.356 534.27 359.706 534.26 359.126 534.24C358.546 534.22 357.886 534.21 357.146 534.21ZM407.06 553.8C407.06 556.54 406.63 558.44 405.77 559.5C404.91 560.56 403.47 561.09 401.45 561.09H387.41C385.79 561.09 384.51 560.63 383.57 559.71C382.63 558.79 382.16 557.54 382.16 555.96V528.33L382.52 527.97H405.95C406.09 528.63 406.17 529.26 406.19 529.86C406.21 530.46 406.22 531.02 406.22 531.54C406.22 532.04 406.16 532.62 406.04 533.28C405.94 533.94 405.77 534.6 405.53 535.26H394.79C393.93 535.26 392.68 535.25 391.04 535.23C391.04 535.83 391.05 536.36 391.07 536.82C391.09 537.26 391.1 537.79 391.1 538.41V540.87C392.72 540.83 393.95 540.81 394.79 540.81H402.74C402.92 541.35 403.04 541.95 403.1 542.61C403.18 543.27 403.22 543.83 403.22 544.29C403.22 544.81 403.18 545.41 403.1 546.09C403.04 546.75 402.92 547.34 402.74 547.86H394.79C394.43 547.86 393.91 547.86 393.23 547.86C392.55 547.86 391.84 547.86 391.1 547.86V550.41C391.1 551.11 391.09 551.7 391.07 552.18C391.05 552.66 391.04 553.24 391.04 553.92V553.98C391.72 553.92 392.35 553.88 392.93 553.86C393.53 553.82 394.26 553.8 395.12 553.8H407.06ZM432.685 552.15C432.685 551.13 432.705 550.13 432.745 549.15C432.325 549.15 431.905 549.15 431.485 549.15C431.065 549.15 430.655 549.15 430.255 549.15C427.555 549.15 426.205 547.88 426.205 545.34C426.205 544.84 426.245 544.25 426.325 543.57C426.425 542.87 426.535 542.33 426.655 541.95C428.095 541.89 429.515 541.86 430.915 541.86C432.315 541.84 433.735 541.83 435.175 541.83C437.435 541.83 438.975 542.26 439.795 543.12C440.615 543.96 441.025 545.16 441.025 546.72V559.92C439.965 560.28 438.625 560.61 437.005 560.91C435.405 561.19 433.735 561.42 431.995 561.6C430.255 561.78 428.665 561.87 427.225 561.87C423.265 561.87 420.075 561.14 417.655 559.68C415.255 558.2 413.505 556.19 412.405 553.65C411.325 551.09 410.785 548.2 410.785 544.98C410.785 540.72 411.575 537.28 413.155 534.66C414.735 532.04 416.825 530.13 419.425 528.93C422.045 527.71 424.895 527.1 427.975 527.1C430.295 527.1 432.545 527.34 434.725 527.82C436.905 528.3 438.835 528.95 440.515 529.77C440.395 531.01 440.005 532.3 439.345 533.64C438.705 534.98 437.975 536 437.155 536.7C434.135 535.14 431.205 534.36 428.365 534.36C422.805 534.36 420.025 537.87 420.025 544.89C420.025 548.37 420.735 550.95 422.155 552.63C423.595 554.31 425.785 555.15 428.725 555.15C429.405 555.15 430.075 555.12 430.735 555.06C431.395 554.98 432.045 554.89 432.685 554.79V552.15ZM456.592 555C456.272 555 455.932 555 455.572 555C455.232 554.98 454.902 554.96 454.582 554.94L452.602 561C452.042 561.14 451.432 561.24 450.772 561.3C450.132 561.36 449.462 561.39 448.762 561.39C447.982 561.39 447.202 561.33 446.422 561.21C445.662 561.11 445.042 560.95 444.562 560.73L444.232 560.25L455.962 527.97C456.922 527.83 457.862 527.74 458.782 527.7C459.722 527.66 460.582 527.64 461.362 527.64C462.062 527.64 462.822 527.66 463.642 527.7C464.482 527.74 465.412 527.83 466.432 527.97L477.832 560.58C477.152 560.88 476.302 561.11 475.282 561.27C474.262 561.43 473.432 561.51 472.792 561.51C471.732 561.51 470.712 561.31 469.732 560.91C468.772 560.49 468.042 559.43 467.542 557.73L466.672 554.94C466.332 554.96 465.982 554.98 465.622 555C465.282 555 464.952 555 464.632 555H456.592ZM457.762 545.19L456.862 547.92C457.182 547.9 457.502 547.89 457.822 547.89C458.162 547.87 458.492 547.86 458.812 547.86H462.712C463.012 547.86 463.302 547.87 463.582 547.89C463.862 547.89 464.142 547.89 464.422 547.89L463.612 545.37C463.152 543.83 462.682 542.1 462.202 540.18C461.742 538.26 461.312 536.52 460.912 534.96H460.582C460.182 536.46 459.722 538.17 459.202 540.09C458.702 541.99 458.222 543.69 457.762 545.19ZM493.93 545.43C493.71 544.99 493.38 544.27 492.94 543.27C492.5 542.25 492.06 541.23 491.62 540.21C491.18 539.19 490.86 538.45 490.66 537.99L490.42 538.08C490.5 539.62 490.58 541.28 490.66 543.06C490.74 544.84 490.8 546.48 490.84 547.98C490.9 549.46 490.93 550.54 490.93 551.22V561C490.19 561.14 489.47 561.23 488.77 561.27C488.07 561.31 487.43 561.33 486.85 561.33C486.29 561.33 485.62 561.31 484.84 561.27C484.06 561.23 483.31 561.14 482.59 561V528.18C483.31 528.02 484.19 527.89 485.23 527.79C486.27 527.69 487.09 527.64 487.69 527.64C488.29 527.64 489.12 527.66 490.18 527.7C491.26 527.72 492.16 527.81 492.88 527.97L500.41 543.51C500.59 543.81 500.84 544.32 501.16 545.04C501.48 545.76 501.83 546.55 502.21 547.41C502.59 548.27 502.94 549.08 503.26 549.84C503.6 550.58 503.85 551.13 504.01 551.49L504.28 551.43C504.2 550.13 504.09 548.63 503.95 546.93C503.83 545.21 503.72 543.55 503.62 541.95C503.54 540.33 503.5 539.03 503.5 538.05V532.56C503.5 530.54 503.93 529.21 504.79 528.57C505.65 527.91 506.95 527.58 508.69 527.58H511.69L512.02 528V560.85C511.28 561.01 510.39 561.13 509.35 561.21C508.31 561.29 507.5 561.33 506.92 561.33C506.34 561.33 505.48 561.31 504.34 561.27C503.2 561.25 502.28 561.16 501.58 561L493.93 545.43ZM550.611 544.56C550.611 550.12 549.311 554.29 546.711 557.07C544.131 559.85 540.041 561.24 534.441 561.24C532.081 561.24 529.871 561.22 527.811 561.18C525.751 561.16 523.551 561.12 521.211 561.06L520.851 560.7V528.27L521.211 527.91C523.551 527.85 525.751 527.8 527.811 527.76C529.871 527.72 532.081 527.7 534.441 527.7C540.001 527.7 544.081 529.14 546.681 532.02C549.301 534.9 550.611 539.08 550.611 544.56ZM541.431 544.56C541.431 543.06 541.261 541.55 540.921 540.03C540.601 538.51 539.941 537.24 538.941 536.22C537.941 535.18 536.431 534.66 534.411 534.66C533.511 534.66 532.731 534.66 532.071 534.66C531.411 534.66 530.661 534.64 529.821 534.6V554.37C530.701 554.37 531.461 554.36 532.101 554.34C532.741 554.32 533.511 554.31 534.411 554.31C536.431 554.31 537.941 553.81 538.941 552.81C539.941 551.79 540.601 550.53 540.921 549.03C541.261 547.51 541.431 546.02 541.431 544.56ZM554.602 544.53C554.602 539.21 555.972 534.98 558.712 531.84C561.472 528.68 565.482 527.1 570.742 527.1C576.102 527.1 580.142 528.67 582.862 531.81C585.602 534.95 586.972 539.19 586.972 544.53C586.972 549.91 585.602 554.15 582.862 557.25C580.122 560.33 576.082 561.87 570.742 561.87C565.402 561.87 561.372 560.31 558.652 557.19C555.952 554.07 554.602 549.85 554.602 544.53ZM563.872 544.53C563.872 545.71 563.952 546.92 564.112 548.16C564.272 549.4 564.592 550.56 565.072 551.64C565.552 552.7 566.252 553.56 567.172 554.22C568.092 554.88 569.302 555.21 570.802 555.21C572.302 555.21 573.512 554.88 574.432 554.22C575.352 553.56 576.042 552.7 576.502 551.64C576.982 550.56 577.302 549.4 577.462 548.16C577.622 546.92 577.702 545.71 577.702 544.53C577.702 543.35 577.622 542.13 577.462 540.87C577.302 539.61 576.982 538.45 576.502 537.39C576.042 536.31 575.352 535.44 574.432 534.78C573.512 534.1 572.302 533.76 570.802 533.76C569.302 533.76 568.092 534.1 567.172 534.78C566.252 535.44 565.552 536.31 565.072 537.39C564.592 538.45 564.272 539.61 564.112 540.87C563.952 542.13 563.872 543.35 563.872 544.53ZM591.049 557.04C591.049 556.68 591.099 556.13 591.199 555.39C591.319 554.63 591.499 554 591.739 553.5C592.319 553.16 593.029 552.9 593.869 552.72C594.729 552.52 595.539 552.42 596.299 552.42C597.059 552.42 597.869 552.52 598.729 552.72C599.589 552.9 600.309 553.16 600.889 553.5C601.129 554 601.299 554.63 601.399 555.39C601.499 556.13 601.549 556.68 601.549 557.04C601.549 557.4 601.499 557.95 601.399 558.69C601.299 559.43 601.129 560.06 600.889 560.58C600.309 560.92 599.589 561.18 598.729 561.36C597.869 561.54 597.059 561.63 596.299 561.63C595.539 561.63 594.729 561.54 593.869 561.36C593.029 561.18 592.319 560.92 591.739 560.58C591.499 560.06 591.319 559.43 591.199 558.69C591.099 557.95 591.049 557.4 591.049 557.04ZM608.041 557.04C608.041 556.68 608.091 556.13 608.191 555.39C608.311 554.63 608.491 554 608.731 553.5C609.311 553.16 610.021 552.9 610.861 552.72C611.721 552.52 612.531 552.42 613.291 552.42C614.051 552.42 614.861 552.52 615.721 552.72C616.581 552.9 617.301 553.16 617.881 553.5C618.121 554 618.291 554.63 618.391 555.39C618.491 556.13 618.541 556.68 618.541 557.04C618.541 557.4 618.491 557.95 618.391 558.69C618.291 559.43 618.121 560.06 617.881 560.58C617.301 560.92 616.581 561.18 615.721 561.36C614.861 561.54 614.051 561.63 613.291 561.63C612.531 561.63 611.721 561.54 610.861 561.36C610.021 561.18 609.311 560.92 608.731 560.58C608.491 560.06 608.311 559.43 608.191 558.69C608.091 557.95 608.041 557.4 608.041 557.04ZM625.033 557.04C625.033 556.68 625.083 556.13 625.183 555.39C625.303 554.63 625.483 554 625.723 553.5C626.303 553.16 627.013 552.9 627.853 552.72C628.713 552.52 629.523 552.42 630.283 552.42C631.043 552.42 631.853 552.52 632.713 552.72C633.573 552.9 634.293 553.16 634.873 553.5C635.113 554 635.283 554.63 635.383 555.39C635.483 556.13 635.533 556.68 635.533 557.04C635.533 557.4 635.483 557.95 635.383 558.69C635.283 559.43 635.113 560.06 634.873 560.58C634.293 560.92 633.573 561.18 632.713 561.36C631.853 561.54 631.043 561.63 630.283 561.63C629.523 561.63 628.713 561.54 627.853 561.36C627.013 561.18 626.303 560.92 625.723 560.58C625.483 560.06 625.303 559.43 625.183 558.69C625.083 557.95 625.033 557.4 625.033 557.04Z" fill="#09BFF6"/>
<defs>
<clipPath id="clip0_83_45">
<rect width="878.63" height="483" fill="white"/>
</clipPath>
</defs>
</svg>
